# xmcd
#
# Track frame offsets: 
#        150
#        5040
#        12660
#        18365
#        33016
#        51323
#        64305
#        89247
#        104147
#        127605
#
# Disc length: 2165 seconds
#
# Revision: 0
# Processed by: cddbd v1.5.2PL0 Copyright (c) Steve Scherf et al.
# Submitted via: ExactAudioCopy v0.99pb3
#
DISCID=8608730a
DTITLE=Rolo Tomassi - Cosmology
DYEAR=2010
DGENRE=Hardcore
TTITLE0=Katzenklavier
TTITLE1=Agamemnon
TTITLE2=House House Casanova
TTITLE3=Party Wounds
TTITLE4=Unromance
TTITLE5=French Motel
TTITLE6=Kasia
TTITLE7=Sakia
TTITLE8=Tongue in Chig
TTITLE9=Cosmology
EXTD=
EXTT0=
EXTT1=
EXTT2=
EXTT3=
EXTT4=
EXTT5=
EXTT6=
EXTT7=
EXTT8=
EXTT9=
PLAYORDER=
